<svg viewBox="0 0 450 291" xmlns="http://www.w3.org/2000/svg" xmlns:xlink="http://www.w3.org/1999/xlink" width="450.000000" height="290.999969" fill="none" customFrame="#000000">
	<defs>
		<g id="pixso_custom_effect_0">
			<effect x="2.000000" y="2.000000" visibility="visible" fill="rgb(0,0,0)" fill-opacity="1" effectType="dropShadow" stdDeviation="0" radius="0" />
		</g>
		<filter id="filter_0" width="184.566406" height="41.000000" x="133.499939" y="220.500000" filterUnits="userSpaceOnUse" customEffect="url(#pixso_custom_effect_0)" color-interpolation-filters="sRGB">
			<feFlood flood-opacity="0" result="BackgroundImageFix" />
			<feOffset dx="2.000000" dy="2.000000" in="SourceAlpha" />
			<feColorMatrix type="matrix" values="0 0 0 0 0 0 0 0 0 0 0 0 0 0 0 0 0 0 1 0 " />
			<feBlend result="effect_dropShadow_1" in2="BackgroundImageFix" mode="normal" />
			<feBlend result="shape" in="SourceGraphic" in2="effect_dropShadow_1" mode="normal" />
		</filter>
	</defs>
	<g id="indicator">
		<rect id="button" width="450.000000" height="99.999969" x="-0.000061" y="191.000000" fill="rgb(126,126,126)" />
		<rect id="button" width="445.000000" height="94.999969" x="2.499939" y="193.500000" stroke="rgb(0,0,0)" stroke-width="5.000000" />
		<g filter="url(#filter_0)">
			<path id="" d="M134.537 246.188L137.613 245.766C137.695 247.734 138.064 249.082 138.721 249.809C139.377 250.535 140.285 250.898 141.445 250.898C142.301 250.898 143.039 250.702 143.66 250.31C144.281 249.917 144.709 249.384 144.943 248.71C145.178 248.036 145.295 246.961 145.295 245.484L145.295 227.73L148.705 227.73L148.705 245.291C148.705 247.447 148.444 249.117 147.923 250.301C147.401 251.484 146.575 252.387 145.444 253.008C144.313 253.629 142.986 253.939 141.463 253.939C139.201 253.939 137.47 253.289 136.268 251.988C135.067 250.688 134.49 248.754 134.537 246.188ZM152.695 244.166C152.695 240.709 153.656 238.148 155.578 236.484C157.184 235.102 159.141 234.41 161.449 234.41C164.016 234.41 166.113 235.251 167.742 236.933C169.371 238.614 170.185 240.938 170.185 243.902C170.185 246.305 169.825 248.194 169.104 249.571C168.384 250.948 167.335 252.018 165.958 252.779C164.581 253.541 163.078 253.922 161.449 253.922C158.836 253.922 156.724 253.084 155.112 251.408C153.501 249.732 152.695 247.318 152.695 244.166ZM155.947 244.166C155.947 246.557 156.469 248.347 157.512 249.536C158.555 250.726 159.867 251.32 161.449 251.32C163.019 251.32 164.326 250.723 165.369 249.527C166.412 248.332 166.934 246.51 166.934 244.061C166.934 241.752 166.409 240.003 165.36 238.813C164.311 237.624 163.008 237.029 161.449 237.029C159.867 237.029 158.555 237.621 157.512 238.805C156.469 239.988 155.947 241.775 155.947 244.166ZM173.912 231.369L173.912 227.73L177.076 227.73L177.076 231.369L173.912 231.369ZM173.912 253.5L173.912 234.832L177.076 234.832L177.076 253.5L173.912 253.5ZM181.893 253.5L181.893 234.832L184.74 234.832L184.74 237.486C186.111 235.436 188.092 234.41 190.682 234.41C191.807 234.41 192.841 234.612 193.784 235.017C194.727 235.421 195.434 235.951 195.902 236.607C196.371 237.264 196.699 238.043 196.887 238.945C197.004 239.531 197.062 240.557 197.062 242.021L197.062 253.5L193.898 253.5L193.898 242.145C193.898 240.855 193.775 239.892 193.529 239.253C193.283 238.614 192.847 238.104 192.22 237.724C191.593 237.343 190.857 237.152 190.014 237.152C188.666 237.152 187.503 237.58 186.524 238.436C185.546 239.291 185.057 240.914 185.057 243.305L185.057 253.5L181.893 253.5ZM211.16 245.221L214.377 244.939C214.529 246.229 214.884 247.286 215.44 248.112C215.997 248.938 216.861 249.606 218.033 250.116C219.205 250.626 220.523 250.881 221.988 250.881C223.289 250.881 224.437 250.688 225.434 250.301C226.43 249.914 227.171 249.384 227.657 248.71C228.143 248.036 228.387 247.301 228.387 246.504C228.387 245.695 228.152 244.989 227.684 244.386C227.215 243.782 226.441 243.275 225.363 242.865C224.672 242.596 223.143 242.177 220.775 241.608C218.408 241.04 216.75 240.504 215.801 240C214.57 239.355 213.653 238.556 213.05 237.601C212.446 236.646 212.144 235.576 212.144 234.393C212.144 233.092 212.514 231.876 213.252 230.745C213.99 229.614 215.068 228.756 216.486 228.17C217.904 227.584 219.48 227.291 221.215 227.291C223.125 227.291 224.81 227.599 226.268 228.214C227.727 228.829 228.85 229.734 229.635 230.93C230.42 232.125 230.842 233.479 230.9 234.99L227.631 235.236C227.455 233.607 226.86 232.377 225.847 231.545C224.833 230.713 223.336 230.297 221.355 230.297C219.293 230.297 217.79 230.675 216.847 231.431C215.903 232.187 215.432 233.098 215.432 234.164C215.432 235.09 215.766 235.852 216.434 236.449C217.09 237.047 218.804 237.659 221.575 238.286C224.347 238.913 226.248 239.461 227.279 239.93C228.779 240.621 229.887 241.497 230.602 242.558C231.316 243.618 231.674 244.84 231.674 246.223C231.674 247.594 231.281 248.886 230.496 250.099C229.711 251.312 228.583 252.255 227.112 252.929C225.642 253.603 223.986 253.939 222.146 253.939C219.814 253.939 217.86 253.6 216.284 252.92C214.708 252.24 213.472 251.218 212.575 249.853C211.679 248.487 211.207 246.943 211.16 245.221ZM248.707 247.488L251.977 247.893C251.461 249.803 250.506 251.285 249.111 252.34C247.717 253.395 245.935 253.922 243.768 253.922C241.037 253.922 238.872 253.081 237.272 251.399C235.673 249.718 234.873 247.359 234.873 244.324C234.873 241.184 235.682 238.746 237.299 237.012C238.916 235.277 241.014 234.41 243.592 234.41C246.088 234.41 248.127 235.26 249.709 236.959C251.291 238.658 252.082 241.049 252.082 244.131C252.082 244.318 252.076 244.6 252.064 244.975L238.143 244.975C238.26 247.025 238.84 248.596 239.883 249.686C240.926 250.775 242.227 251.32 243.785 251.32C244.945 251.32 245.935 251.016 246.756 250.406C247.576 249.797 248.227 248.824 248.707 247.488ZM238.318 242.373L248.742 242.373C248.602 240.803 248.203 239.625 247.547 238.84C246.539 237.621 245.232 237.012 243.627 237.012C242.174 237.012 240.952 237.498 239.962 238.471C238.972 239.443 238.424 240.744 238.318 242.373ZM255.914 253.5L255.914 234.832L258.762 234.832L258.762 237.662C259.488 236.338 260.159 235.465 260.774 235.043C261.39 234.621 262.066 234.41 262.805 234.41C263.871 234.41 264.955 234.75 266.057 235.43L264.967 238.365C264.193 237.908 263.42 237.68 262.646 237.68C261.955 237.68 261.334 237.888 260.783 238.304C260.232 238.72 259.84 239.297 259.605 240.035C259.254 241.16 259.078 242.391 259.078 243.727L259.078 253.5L255.914 253.5ZM273.123 253.5L266.021 234.832L269.361 234.832L273.369 246.012C273.803 247.219 274.201 248.473 274.564 249.773C274.846 248.789 275.238 247.605 275.742 246.223L279.891 234.832L283.143 234.832L276.076 253.5L273.123 253.5ZM298.717 247.488L301.986 247.893C301.471 249.803 300.516 251.285 299.121 252.34C297.727 253.395 295.945 253.922 293.777 253.922C291.047 253.922 288.882 253.081 287.282 251.399C285.683 249.718 284.883 247.359 284.883 244.324C284.883 241.184 285.691 238.746 287.309 237.012C288.926 235.277 291.023 234.41 293.602 234.41C296.098 234.41 298.137 235.26 299.719 236.959C301.301 238.658 302.092 241.049 302.092 244.131C302.092 244.318 302.086 244.6 302.074 244.975L288.152 244.975C288.269 247.025 288.85 248.596 289.893 249.686C290.935 250.775 292.236 251.32 293.795 251.32C294.955 251.32 295.945 251.016 296.766 250.406C297.586 249.797 298.236 248.824 298.717 247.488ZM288.328 242.373L298.752 242.373C298.611 240.803 298.213 239.625 297.557 238.84C296.549 237.621 295.242 237.012 293.637 237.012C292.184 237.012 290.962 237.498 289.972 238.471C288.981 239.443 288.434 240.744 288.328 242.373ZM305.924 253.5L305.924 234.832L308.771 234.832L308.771 237.662C309.498 236.338 310.169 235.465 310.784 235.043C311.399 234.621 312.076 234.41 312.814 234.41C313.881 234.41 314.965 234.75 316.066 235.43L314.977 238.365C314.203 237.908 313.43 237.68 312.656 237.68C311.965 237.68 311.344 237.888 310.793 238.304C310.242 238.72 309.85 239.297 309.615 240.035C309.264 241.16 309.088 242.391 309.088 243.727L309.088 253.5L305.924 253.5Z" fill="rgb(255,255,255)" fill-rule="nonzero" />
		</g>
		<rect id="input" width="450.000000" height="99.999969" x="-0.000061" y="53.500000" fill="rgb(0,0,0)" />
		<rect id="input" width="445.000000" height="94.999969" x="2.499939" y="56.000000" stroke="rgb(153,153,153)" stroke-width="5.000000" />
		<path id="" d="M1.61713 24.7207L4.83392 24.4395C4.98627 25.7285 5.34076 26.7861 5.8974 27.6123C6.45404 28.4385 7.3183 29.1064 8.49017 29.6162C9.66205 30.126 10.9804 30.3809 12.4453 30.3809C13.746 30.3809 14.8945 30.1875 15.8906 29.8008C16.8867 29.4141 17.6279 28.8838 18.1142 28.21C18.6005 27.5361 18.8437 26.8008 18.8437 26.0039C18.8437 25.1953 18.6093 24.4893 18.1406 23.8857C17.6718 23.2822 16.8984 22.7754 15.8203 22.3652C15.1288 22.0957 13.5995 21.6768 11.2324 21.1084C8.86517 20.54 7.20697 20.0039 6.25775 19.5C5.02728 18.8555 4.11029 18.0557 3.50677 17.1006C2.90326 16.1455 2.6015 15.0762 2.6015 13.8926C2.6015 12.5918 2.97064 11.376 3.70892 10.2451C4.4472 9.11426 5.52533 8.25586 6.9433 7.66992C8.36127 7.08398 9.93744 6.79102 11.6718 6.79102C13.582 6.79102 15.2665 7.09863 16.7255 7.71387C18.1845 8.3291 19.3066 9.23438 20.0917 10.4297C20.8769 11.625 21.2988 12.9785 21.3574 14.4902L18.0878 14.7363C17.912 13.1074 17.3173 11.877 16.3036 11.0449C15.29 10.2129 13.7929 9.79688 11.8124 9.79688C9.74994 9.79688 8.24701 10.1748 7.30365 10.9307C6.36029 11.6865 5.88861 12.5977 5.88861 13.6641C5.88861 14.5898 6.2226 15.3516 6.89056 15.9492C7.54681 16.5469 9.26068 17.1592 12.0322 17.7861C14.8036 18.4131 16.705 18.9609 17.7363 19.4297C19.2363 20.1211 20.3437 20.9971 21.0585 22.0576C21.7734 23.1182 22.1308 24.3398 22.1308 25.7227C22.1308 27.0938 21.7382 28.3857 20.9531 29.5986C20.1679 30.8115 19.04 31.7549 17.5693 32.4287C16.0986 33.1025 14.4433 33.4395 12.6035 33.4395C10.2714 33.4395 8.31732 33.0996 6.74115 32.4199C5.16498 31.7402 3.92865 30.7178 3.03217 29.3525C2.13568 27.9873 1.664 26.4434 1.61713 24.7207ZM39.164 26.9883L42.4335 27.3926C41.9179 29.3027 40.9628 30.7852 39.5683 31.8398C38.1738 32.8945 36.3925 33.4219 34.2245 33.4219C31.4941 33.4219 29.329 32.5811 27.7294 30.8994C26.1298 29.2178 25.33 26.8594 25.33 23.8242C25.33 20.6836 26.1386 18.2461 27.7558 16.5117C29.373 14.7773 31.4706 13.9102 34.0488 13.9102C36.5449 13.9102 38.5839 14.7598 40.166 16.459C41.748 18.1582 42.539 20.5488 42.539 23.6309C42.539 23.8184 42.5331 24.0996 42.5214 24.4746L28.5995 24.4746C28.7167 26.5254 29.2968 28.0957 30.3398 29.1855C31.3828 30.2754 32.6835 30.8203 34.2421 30.8203C35.4023 30.8203 36.3925 30.5156 37.2128 29.9062C38.0331 29.2969 38.6835 28.3242 39.164 26.9883ZM28.7753 21.873L39.1992 21.873C39.0585 20.3027 38.6601 19.125 38.0038 18.3398C36.996 17.1211 35.6894 16.5117 34.0839 16.5117C32.6308 16.5117 31.4091 16.998 30.4189 17.9707C29.4286 18.9434 28.8808 20.2441 28.7753 21.873ZM46.371 33L46.371 14.332L49.2187 14.332L49.2187 17.1621C49.9453 15.8379 50.6161 14.9648 51.2314 14.543C51.8466 14.1211 52.5234 13.9102 53.2617 13.9102C54.3281 13.9102 55.412 14.25 56.5136 14.9297L55.4238 17.8652C54.6503 17.4082 53.8769 17.1797 53.1035 17.1797C52.412 17.1797 51.791 17.3877 51.2402 17.8037C50.6894 18.2197 50.2968 18.7969 50.0624 19.5352C49.7109 20.6602 49.5351 21.8906 49.5351 23.2266L49.5351 33L46.371 33ZM63.58 33L56.4785 14.332L59.8183 14.332L63.8261 25.5117C64.2597 26.7188 64.6581 27.9727 65.0214 29.2734C65.3027 28.2891 65.6953 27.1055 66.1992 25.7227L70.3476 14.332L73.5995 14.332L66.5331 33L63.58 33ZM89.1738 26.9883L92.4433 27.3926C91.9277 29.3027 90.9726 30.7852 89.5781 31.8398C88.1835 32.8945 86.4023 33.4219 84.2343 33.4219C81.5038 33.4219 79.3388 32.5811 77.7392 30.8994C76.1396 29.2178 75.3398 26.8594 75.3398 23.8242C75.3398 20.6836 76.1484 18.2461 77.7656 16.5117C79.3828 14.7773 81.4804 13.9102 84.0585 13.9102C86.5546 13.9102 88.5937 14.7598 90.1757 16.459C91.7578 18.1582 92.5488 20.5488 92.5488 23.6309C92.5488 23.8184 92.5429 24.0996 92.5312 24.4746L78.6093 24.4746C78.7265 26.5254 79.3066 28.0957 80.3495 29.1855C81.3925 30.2754 82.6933 30.8203 84.2519 30.8203C85.412 30.8203 86.4023 30.5156 87.2226 29.9062C88.0429 29.2969 88.6933 28.3242 89.1738 26.9883ZM78.7851 21.873L89.2089 21.873C89.0683 20.3027 88.6699 19.125 88.0136 18.3398C87.0058 17.1211 85.6992 16.5117 84.0937 16.5117C82.6406 16.5117 81.4189 16.998 80.4286 17.9707C79.4384 18.9434 78.8906 20.2441 78.7851 21.873ZM96.3808 33L96.3808 14.332L99.2285 14.332L99.2285 17.1621C99.955 15.8379 100.626 14.9648 101.241 14.543C101.856 14.1211 102.533 13.9102 103.271 13.9102C104.338 13.9102 105.422 14.25 106.523 14.9297L105.434 17.8652C104.66 17.4082 103.887 17.1797 103.113 17.1797C102.422 17.1797 101.801 17.3877 101.25 17.8037C100.699 18.2197 100.307 18.7969 100.072 19.5352C99.7206 20.6602 99.5449 21.8906 99.5449 23.2266L99.5449 33L96.3808 33ZM113.994 33L123.891 7.23047L127.564 7.23047L138.111 33L134.227 33L131.221 25.1953L120.445 25.1953L117.615 33L113.994 33ZM121.43 22.418L130.166 22.418L127.477 15.2812C126.656 13.1133 126.047 11.332 125.648 9.9375C125.32 11.5898 124.857 13.2305 124.26 14.8594L121.43 22.418ZM152.543 33L152.543 30.6445C151.359 32.4961 149.619 33.4219 147.322 33.4219C145.834 33.4219 144.466 33.0117 143.218 32.1914C141.97 31.3711 141.003 30.2256 140.317 28.7549C139.632 27.2842 139.289 25.5938 139.289 23.6836C139.289 21.8203 139.6 20.1299 140.221 18.6123C140.842 17.0947 141.773 15.9316 143.016 15.123C144.258 14.3145 145.646 13.9102 147.182 13.9102C148.307 13.9102 149.309 14.1475 150.187 14.6221C151.066 15.0967 151.781 15.7148 152.332 16.4766L152.332 7.23047L155.478 7.23047L155.478 33L152.543 33ZM142.541 23.6836C142.541 26.0742 143.045 27.8613 144.053 29.0449C145.06 30.2285 146.25 30.8203 147.621 30.8203C149.004 30.8203 150.179 30.2549 151.145 29.124C152.112 27.9932 152.596 26.2676 152.596 23.9473C152.596 21.3926 152.103 19.5176 151.119 18.3223C150.135 17.127 148.922 16.5293 147.48 16.5293C146.074 16.5293 144.899 17.1035 143.956 18.252C143.013 19.4004 142.541 21.2109 142.541 23.6836ZM172.564 33L172.564 30.6445C171.381 32.4961 169.641 33.4219 167.344 33.4219C165.855 33.4219 164.487 33.0117 163.239 32.1914C161.991 31.3711 161.024 30.2256 160.339 28.7549C159.653 27.2842 159.31 25.5938 159.31 23.6836C159.31 21.8203 159.621 20.1299 160.242 18.6123C160.863 17.0947 161.795 15.9316 163.037 15.123C164.279 14.3145 165.668 13.9102 167.203 13.9102C168.328 13.9102 169.33 14.1475 170.209 14.6221C171.088 15.0967 171.803 15.7148 172.353 16.4766L172.353 7.23047L175.5 7.23047L175.5 33L172.564 33ZM162.562 23.6836C162.562 26.0742 163.066 27.8613 164.074 29.0449C165.082 30.2285 166.271 30.8203 167.643 30.8203C169.025 30.8203 170.2 30.2549 171.167 29.124C172.134 27.9932 172.617 26.2676 172.617 23.9473C172.617 21.3926 172.125 19.5176 171.141 18.3223C170.156 17.127 168.943 16.5293 167.502 16.5293C166.096 16.5293 164.921 17.1035 163.977 18.252C163.034 19.4004 162.562 21.2109 162.562 23.6836ZM180.439 33L180.439 14.332L183.287 14.332L183.287 17.1621C184.014 15.8379 184.685 14.9648 185.3 14.543C185.915 14.1211 186.592 13.9102 187.33 13.9102C188.396 13.9102 189.48 14.25 190.582 14.9297L189.492 17.8652C188.719 17.4082 187.945 17.1797 187.172 17.1797C186.48 17.1797 185.859 17.3877 185.309 17.8037C184.758 18.2197 184.365 18.7969 184.131 19.5352C183.779 20.6602 183.603 21.8906 183.603 23.2266L183.603 33L180.439 33ZM205.242 26.9883L208.512 27.3926C207.996 29.3027 207.041 30.7852 205.646 31.8398C204.252 32.8945 202.471 33.4219 200.303 33.4219C197.572 33.4219 195.407 32.5811 193.808 30.8994C192.208 29.2178 191.408 26.8594 191.408 23.8242C191.408 20.6836 192.217 18.2461 193.834 16.5117C195.451 14.7773 197.549 13.9102 200.127 13.9102C202.623 13.9102 204.662 14.7598 206.244 16.459C207.826 18.1582 208.617 20.5488 208.617 23.6309C208.617 23.8184 208.611 24.0996 208.6 24.4746L194.678 24.4746C194.795 26.5254 195.375 28.0957 196.418 29.1855C197.461 30.2754 198.762 30.8203 200.32 30.8203C201.48 30.8203 202.471 30.5156 203.291 29.9062C204.111 29.2969 204.762 28.3242 205.242 26.9883ZM194.853 21.873L205.277 21.873C205.137 20.3027 204.738 19.125 204.082 18.3398C203.074 17.1211 201.768 16.5117 200.162 16.5117C198.709 16.5117 197.487 16.998 196.497 17.9707C195.507 18.9434 194.959 20.2441 194.853 21.873ZM211.219 27.4277L214.348 26.9355C214.523 28.1895 215.013 29.1504 215.815 29.8184C216.618 30.4863 217.74 30.8203 219.182 30.8203C220.635 30.8203 221.713 30.5244 222.416 29.9326C223.119 29.3408 223.471 28.6465 223.471 27.8496C223.471 27.1348 223.16 26.5723 222.539 26.1621C222.105 25.8809 221.027 25.5234 219.305 25.0898C216.984 24.5039 215.376 23.9971 214.479 23.5693C213.583 23.1416 212.903 22.5498 212.44 21.7939C211.977 21.0381 211.746 20.2031 211.746 19.2891C211.746 18.457 211.936 17.6865 212.317 16.9775C212.698 16.2686 213.217 15.6797 213.873 15.2109C214.365 14.8477 215.036 14.54 215.886 14.2881C216.735 14.0361 217.646 13.9102 218.619 13.9102C220.084 13.9102 221.37 14.1211 222.477 14.543C223.585 14.9648 224.402 15.5361 224.93 16.2568C225.457 16.9775 225.82 17.9414 226.019 19.1484L222.926 19.5703C222.785 18.6094 222.378 17.8594 221.704 17.3203C221.03 16.7812 220.078 16.5117 218.848 16.5117C217.394 16.5117 216.357 16.752 215.736 17.2324C215.115 17.7129 214.805 18.2754 214.805 18.9199C214.805 19.3301 214.934 19.6992 215.191 20.0273C215.449 20.3672 215.853 20.6484 216.404 20.8711C216.721 20.9883 217.652 21.2578 219.199 21.6797C221.437 22.2773 222.999 22.7666 223.884 23.1475C224.768 23.5283 225.463 24.082 225.967 24.8086C226.471 25.5352 226.723 26.4375 226.723 27.5156C226.723 28.5703 226.415 29.5635 225.8 30.4951C225.185 31.4268 224.297 32.1475 223.137 32.6572C221.977 33.167 220.664 33.4219 219.199 33.4219C216.773 33.4219 214.925 32.918 213.653 31.9102C212.382 30.9023 211.57 29.4082 211.219 27.4277ZM229.219 27.4277L232.348 26.9355C232.523 28.1895 233.013 29.1504 233.815 29.8184C234.618 30.4863 235.74 30.8203 237.182 30.8203C238.635 30.8203 239.713 30.5244 240.416 29.9326C241.119 29.3408 241.471 28.6465 241.471 27.8496C241.471 27.1348 241.16 26.5723 240.539 26.1621C240.105 25.8809 239.027 25.5234 237.305 25.0898C234.984 24.5039 233.376 23.9971 232.479 23.5693C231.583 23.1416 230.903 22.5498 230.44 21.7939C229.977 21.0381 229.746 20.2031 229.746 19.2891C229.746 18.457 229.936 17.6865 230.317 16.9775C230.698 16.2686 231.217 15.6797 231.873 15.2109C232.365 14.8477 233.036 14.54 233.886 14.2881C234.735 14.0361 235.646 13.9102 236.619 13.9102C238.084 13.9102 239.37 14.1211 240.477 14.543C241.585 14.9648 242.402 15.5361 242.93 16.2568C243.457 16.9775 243.82 17.9414 244.019 19.1484L240.926 19.5703C240.785 18.6094 240.378 17.8594 239.704 17.3203C239.03 16.7812 238.078 16.5117 236.848 16.5117C235.394 16.5117 234.357 16.752 233.736 17.2324C233.115 17.7129 232.805 18.2754 232.805 18.9199C232.805 19.3301 232.934 19.6992 233.191 20.0273C233.449 20.3672 233.853 20.6484 234.404 20.8711C234.721 20.9883 235.652 21.2578 237.199 21.6797C239.437 22.2773 240.999 22.7666 241.884 23.1475C242.768 23.5283 243.463 24.082 243.967 24.8086C244.471 25.5352 244.723 26.4375 244.723 27.5156C244.723 28.5703 244.415 29.5635 243.8 30.4951C243.185 31.4268 242.297 32.1475 241.137 32.6572C239.977 33.167 238.664 33.4219 237.199 33.4219C234.773 33.4219 232.925 32.918 231.653 31.9102C230.382 30.9023 229.57 29.4082 229.219 27.4277Z" fill="rgb(153,153,153)" fill-rule="nonzero" />
	</g>
</svg>
